<svg width="218" height="47" viewBox="0 0 218 47" fill="none" xmlns="http://www.w3.org/2000/svg">
<path d="M65.3242 34.4219C71.5469 34.4219 75.8887 30.8535 76.4863 25.1934H71.3184C70.7559 28.1992 68.4883 30.0449 65.3418 30.0449C61.2812 30.0449 58.7324 26.7051 58.7324 21.291C58.7324 15.9473 61.3164 12.5898 65.3242 12.5898C68.418 12.5898 70.8086 14.6289 71.3008 17.7402H76.4688C76.0645 12.0625 71.4238 8.19531 65.3242 8.19531C57.9766 8.19531 53.3184 13.1348 53.3184 21.3086C53.3184 29.5 57.9414 34.4219 65.3242 34.4219ZM87.9824 34.4043C93.6777 34.4043 97.3164 30.7656 97.3164 24.5605C97.3164 18.4434 93.625 14.752 87.9824 14.752C82.3398 14.752 78.6484 18.4609 78.6484 24.5605C78.6484 30.748 82.2871 34.4043 87.9824 34.4043ZM87.9824 30.4844C85.4512 30.4844 83.8516 28.3574 83.8516 24.5781C83.8516 20.834 85.4863 18.6719 87.9824 18.6719C90.4785 18.6719 92.0957 20.834 92.0957 24.5781C92.0957 28.3574 90.4961 30.4844 87.9824 30.4844ZM106.967 34.2988C109.744 34.2988 111.924 32.8398 112.838 30.7656H112.926V34H117.988V8.63477H112.855V18.3906H112.75C111.836 16.2988 109.727 14.8574 107.002 14.8574C102.273 14.8574 99.2852 18.5664 99.2852 24.543C99.2852 30.5723 102.256 34.2988 106.967 34.2988ZM108.707 18.9707C111.256 18.9707 112.891 21.1504 112.891 24.5781C112.891 28.0234 111.256 30.168 108.707 30.168C106.123 30.168 104.541 28.041 104.541 24.5781C104.541 21.1328 106.123 18.9707 108.707 18.9707ZM133.896 28.2344C133.422 29.6758 131.98 30.6074 130.1 30.6074C127.48 30.6074 125.775 28.7617 125.775 26.0723V25.7559H138.766V24.1914C138.766 18.4609 135.303 14.752 129.818 14.752C124.246 14.752 120.73 18.6543 120.73 24.666C120.73 30.6953 124.211 34.4043 130.012 34.4043C134.67 34.4043 138.045 31.9258 138.607 28.2344H133.896ZM129.871 18.5488C132.156 18.5488 133.721 20.2012 133.826 22.6094H125.828C126.004 20.2539 127.621 18.5488 129.871 18.5488ZM158.541 22.1699C158.312 17.8984 155.078 14.752 149.98 14.752C144.338 14.752 140.734 18.5137 140.734 24.5605C140.734 30.7129 144.338 34.4043 150.016 34.4043C154.973 34.4043 158.295 31.5391 158.559 27.0918H153.777C153.461 29.1484 152.125 30.3789 150.068 30.3789C147.52 30.3789 145.938 28.2695 145.938 24.5605C145.938 20.9219 147.52 18.7773 150.051 18.7773C152.16 18.7773 153.479 20.1836 153.777 22.1699H158.541ZM166.627 34.2988C168.982 34.2988 171.32 33.1211 172.375 31.1172H172.48V34H177.438V21.0449C177.438 17.248 174.291 14.752 169.457 14.752C164.465 14.752 161.354 17.2656 161.16 20.9219H165.854C166.1 19.5332 167.312 18.584 169.229 18.584C171.162 18.584 172.393 19.6035 172.393 21.3613V22.6094L167.646 22.8906C162.953 23.1719 160.316 25.1582 160.316 28.5859C160.316 31.9785 163.041 34.2988 166.627 34.2988ZM168.314 30.5898C166.574 30.5898 165.414 29.7109 165.414 28.3047C165.414 26.9688 166.504 26.1074 168.42 25.9668L172.393 25.7207V27.0918C172.393 29.1309 170.547 30.5898 168.314 30.5898ZM180.443 20.6934C180.443 23.5234 182.289 25.3516 185.928 26.125L189.145 26.793C190.99 27.2148 191.641 27.7773 191.641 28.7793C191.641 30.0098 190.445 30.8008 188.512 30.8008C186.473 30.8008 185.295 29.9219 184.979 28.2695H179.969C180.303 31.9785 183.309 34.4043 188.512 34.4043C193.363 34.4043 196.756 31.9609 196.756 28.252C196.756 25.4922 195.139 23.9453 191.201 23.1191L187.984 22.4336C186.086 22.0293 185.383 21.3789 185.383 20.4121C185.383 19.1641 186.561 18.3555 188.336 18.3555C190.234 18.3555 191.377 19.3926 191.535 20.9219H196.264C196.158 17.2305 193.17 14.752 188.336 14.752C183.537 14.752 180.443 17.1074 180.443 20.6934ZM211.768 28.2344C211.293 29.6758 209.852 30.6074 207.971 30.6074C205.352 30.6074 203.646 28.7617 203.646 26.0723V25.7559H216.637V24.1914C216.637 18.4609 213.174 14.752 207.689 14.752C202.117 14.752 198.602 18.6543 198.602 24.666C198.602 30.6953 202.082 34.4043 207.883 34.4043C212.541 34.4043 215.916 31.9258 216.479 28.2344H211.768ZM207.742 18.5488C210.027 18.5488 211.592 20.2012 211.697 22.6094H203.699C203.875 20.2539 205.492 18.5488 207.742 18.5488Z" fill="url(#paint0_linear)"/>
<g filter="url(#filter0_d)">
<rect x="4" y="4" width="35" height="35" rx="11" fill="url(#paint1_linear)"/>
<rect x="4.5" y="4.5" width="34" height="34" rx="10.5" stroke="white"/>
</g>
<path d="M17.9861 28.4363L23.9396 14.5317C24.0397 14.2994 24.2246 14.1141 24.4566 14.0135C24.6886 13.913 24.9503 13.9047 25.1882 13.9905C25.4261 14.0762 25.6223 14.2495 25.7368 14.475C25.8513 14.7005 25.8754 14.9612 25.8043 15.2039L25.7646 15.3131L19.8111 29.2178C19.711 29.45 19.5261 29.6353 19.2941 29.7359C19.0621 29.8364 18.8004 29.8447 18.5625 29.7589C18.3246 29.6732 18.1284 29.4999 18.0139 29.2744C17.8994 29.0489 17.8753 28.7882 17.9464 28.5456L17.9861 28.4363L23.9396 14.5317L17.9861 28.4353V28.4363ZM12.2342 21.1702L16.2058 17.1986C16.3845 17.0205 16.6243 16.9171 16.8764 16.9094C17.1286 16.9017 17.3742 16.9903 17.5634 17.1572C17.7526 17.324 17.8712 17.5566 17.8952 17.8077C17.9191 18.0589 17.8465 18.3097 17.6922 18.5092L17.6098 18.6026L14.3402 21.8722L17.6098 25.1419C17.7898 25.3201 17.8948 25.5604 17.9034 25.8136C17.912 26.0668 17.8235 26.3137 17.656 26.5037C17.4885 26.6938 17.2548 26.8126 17.0025 26.836C16.7503 26.8593 16.4987 26.7854 16.2992 26.6292L16.2058 26.5458L12.2342 22.5742C12.0632 22.4032 11.9606 22.1758 11.9454 21.9345C11.9302 21.6932 12.0036 21.4546 12.1518 21.2636L12.2342 21.1702L16.2058 17.1986L12.2342 21.1702ZM26.1349 17.1976C26.3059 17.0267 26.5334 16.924 26.7747 16.9088C27.016 16.8936 27.2545 16.967 27.4456 17.1152L27.5379 17.1976L31.5105 21.1702C31.6815 21.3412 31.7842 21.5687 31.7993 21.81C31.8145 22.0513 31.7411 22.2898 31.5929 22.4809L31.5105 22.5752L27.5379 26.5419C27.3592 26.7199 27.1194 26.8233 26.8673 26.831C26.6151 26.8387 26.3695 26.7502 26.1803 26.5833C25.9911 26.4165 25.8725 26.1839 25.8486 25.9327C25.8246 25.6816 25.8972 25.4308 26.0515 25.2312L26.1349 25.1369L29.4026 21.8722L26.1329 18.6016C25.9468 18.4154 25.8422 18.1629 25.8422 17.8996C25.8422 17.6363 25.9468 17.3838 26.1329 17.1976H26.1349Z" fill="#044E54"/>
<defs>
<filter id="filter0_d" x="0" y="4" width="43" height="43" filterUnits="userSpaceOnUse" color-interpolation-filters="sRGB">
<feFlood flood-opacity="0" result="BackgroundImageFix"/>
<feColorMatrix in="SourceAlpha" type="matrix" values="0 0 0 0 0 0 0 0 0 0 0 0 0 0 0 0 0 0 127 0"/>
<feOffset dy="4"/>
<feGaussianBlur stdDeviation="2"/>
<feColorMatrix type="matrix" values="0 0 0 0 0 0 0 0 0 0 0 0 0 0 0 0 0 0 0.25 0"/>
<feBlend mode="normal" in2="BackgroundImageFix" result="effect1_dropShadow"/>
<feBlend mode="normal" in="SourceGraphic" in2="effect1_dropShadow" result="shape"/>
</filter>
<linearGradient id="paint0_linear" x1="52" y1="22.1143" x2="218" y2="22.1143" gradientUnits="userSpaceOnUse">
<stop stop-color="#BDF1E3"/>
<stop offset="0.338542" stop-color="#B9EFE3"/>
<stop offset="1" stop-color="#90DAE9"/>
</linearGradient>
<linearGradient id="paint1_linear" x1="4" y1="22" x2="39" y2="22" gradientUnits="userSpaceOnUse">
<stop stop-color="#BDF1E3"/>
<stop offset="0.338542" stop-color="#B9EFE3"/>
<stop offset="1" stop-color="#90DAE9"/>
</linearGradient>
</defs>
</svg>
