<svg width="43" height="43" viewBox="0 0 43 43" fill="none" xmlns="http://www.w3.org/2000/svg">
<g filter="url(#filter0_d)">
<rect x="4" width="35" height="35" rx="11" fill="url(#paint0_linear)"/>
<rect x="4.5" y="0.5" width="34" height="34" rx="10.5" stroke="white"/>
</g>
<path d="M17.9861 24.4366L23.9396 10.5319C24.0397 10.2997 24.2246 10.1143 24.4566 10.0138C24.6886 9.91321 24.9503 9.90496 25.1882 9.99072C25.4261 10.0765 25.6223 10.2498 25.7368 10.4753C25.8513 10.7008 25.8754 10.9614 25.8043 11.2041L25.7646 11.3133L19.8111 25.218C19.711 25.4502 19.5261 25.6356 19.2941 25.7361C19.0621 25.8367 18.8004 25.8449 18.5625 25.7592C18.3246 25.6734 18.1284 25.5001 18.0139 25.2746C17.8994 25.0491 17.8753 24.7885 17.9464 24.5458L17.9861 24.4366L23.9396 10.5319L17.9861 24.4356V24.4366ZM12.2342 17.1705L16.2058 13.1989C16.3845 13.0208 16.6243 12.9174 16.8764 12.9097C17.1286 12.902 17.3742 12.9906 17.5634 13.1574C17.7526 13.3242 17.8712 13.5568 17.8952 13.808C17.9191 14.0591 17.8465 14.3099 17.6922 14.5095L17.6098 14.6028L14.3402 17.8725L17.6098 21.1421C17.7898 21.3204 17.8948 21.5607 17.9034 21.8139C17.912 22.067 17.8235 22.3139 17.656 22.504C17.4885 22.694 17.2548 22.8129 17.0025 22.8362C16.7503 22.8596 16.4987 22.7856 16.2992 22.6295L16.2058 22.5461L12.2342 18.5745C12.0632 18.4035 11.9606 18.176 11.9454 17.9347C11.9302 17.6934 12.0036 17.4549 12.1518 17.2638L12.2342 17.1705L16.2058 13.1989L12.2342 17.1705ZM26.1349 13.1979C26.3059 13.0269 26.5334 12.9242 26.7747 12.909C27.016 12.8939 27.2545 12.9673 27.4456 13.1154L27.5379 13.1979L31.5105 17.1705C31.6815 17.3415 31.7842 17.5689 31.7993 17.8102C31.8145 18.0515 31.7411 18.2901 31.5929 18.4811L31.5105 18.5754L27.5379 22.5421C27.3592 22.7202 27.1194 22.8236 26.8673 22.8313C26.6151 22.839 26.3695 22.7504 26.1803 22.5836C25.9911 22.4167 25.8725 22.1841 25.8486 21.933C25.8246 21.6819 25.8972 21.431 26.0515 21.2315L26.1349 21.1371L29.4026 17.8725L26.1329 14.6018C25.9468 14.4156 25.8422 14.1631 25.8422 13.8998C25.8422 13.6366 25.9468 13.3841 26.1329 13.1979H26.1349Z" fill="#044E54"/>
<defs>
<filter id="filter0_d" x="0" y="0" width="43" height="43" filterUnits="userSpaceOnUse" color-interpolation-filters="sRGB">
<feFlood flood-opacity="0" result="BackgroundImageFix"/>
<feColorMatrix in="SourceAlpha" type="matrix" values="0 0 0 0 0 0 0 0 0 0 0 0 0 0 0 0 0 0 127 0"/>
<feOffset dy="4"/>
<feGaussianBlur stdDeviation="2"/>
<feColorMatrix type="matrix" values="0 0 0 0 0 0 0 0 0 0 0 0 0 0 0 0 0 0 0.25 0"/>
<feBlend mode="normal" in2="BackgroundImageFix" result="effect1_dropShadow"/>
<feBlend mode="normal" in="SourceGraphic" in2="effect1_dropShadow" result="shape"/>
</filter>
<linearGradient id="paint0_linear" x1="4" y1="18" x2="39" y2="18" gradientUnits="userSpaceOnUse">
<stop stop-color="#BDF1E3"/>
<stop offset="0.338542" stop-color="#B9EFE3"/>
<stop offset="1" stop-color="#90DAE9"/>
</linearGradient>
</defs>
</svg>
